<svg width="512" height="512" viewBox="0 0 512 512" fill="none" xmlns="http://www.w3.org/2000/svg">
<path d="M256.44 61C179.552 61 117 123.552 117 200.439C117 248.33 175.183 353.576 223.992 433.433C230.958 444.831 243.088 451.634 256.44 451.634C269.793 451.634 281.922 444.83 288.888 433.433C337.698 353.576 395.88 248.33 395.88 200.439C395.88 123.552 333.328 61 256.44 61ZM256.44 246.911C225.536 246.911 200.393 221.769 200.393 190.865C200.393 159.962 225.536 134.82 256.44 134.82C287.344 134.82 312.487 159.962 312.487 190.865C312.487 221.77 287.344 246.911 256.44 246.911Z" fill="#FE5857"/>
<path d="M256.44 61C256.439 61 256.437 61 256.436 61V134.82C256.437 134.82 256.439 134.82 256.44 134.82C287.344 134.82 312.487 159.962 312.487 190.865C312.487 221.769 287.344 246.911 256.44 246.911C256.439 246.911 256.437 246.911 256.436 246.911V451.634C256.437 451.634 256.439 451.634 256.44 451.634C269.793 451.634 281.922 444.83 288.888 433.433C337.698 353.576 395.88 248.33 395.88 200.439C395.88 123.552 333.328 61 256.44 61Z" fill="#DB0253"/>
</svg>
